<svg id="visual" viewBox="0 0 960 540" width="960" height="540" xmlns="http://www.w3.org/2000/svg" xmlns:xlink="http://www.w3.org/1999/xlink" version="1.1"><rect x="0" y="0" width="960" height="540" fill="#001220"></rect><defs><linearGradient id="grad1_0" x1="43.8%" y1="100%" x2="100%" y2="0%"><stop offset="14.444444444444446%" stop-color="#293c78" stop-opacity="1"></stop><stop offset="85.55555555555554%" stop-color="#293c78" stop-opacity="1"></stop></linearGradient></defs><defs><linearGradient id="grad1_1" x1="43.8%" y1="100%" x2="100%" y2="0%"><stop offset="14.444444444444446%" stop-color="#293c78" stop-opacity="1"></stop><stop offset="85.55555555555554%" stop-color="#1c376b" stop-opacity="1"></stop></linearGradient></defs><defs><linearGradient id="grad1_2" x1="43.8%" y1="100%" x2="100%" y2="0%"><stop offset="14.444444444444446%" stop-color="#11315f" stop-opacity="1"></stop><stop offset="85.55555555555554%" stop-color="#1c376b" stop-opacity="1"></stop></linearGradient></defs><defs><linearGradient id="grad1_3" x1="43.8%" y1="100%" x2="100%" y2="0%"><stop offset="14.444444444444446%" stop-color="#11315f" stop-opacity="1"></stop><stop offset="85.55555555555554%" stop-color="#072b52" stop-opacity="1"></stop></linearGradient></defs><defs><linearGradient id="grad1_4" x1="43.8%" y1="100%" x2="100%" y2="0%"><stop offset="14.444444444444446%" stop-color="#032545" stop-opacity="1"></stop><stop offset="85.55555555555554%" stop-color="#072b52" stop-opacity="1"></stop></linearGradient></defs><defs><linearGradient id="grad1_5" x1="43.8%" y1="100%" x2="100%" y2="0%"><stop offset="14.444444444444446%" stop-color="#032545" stop-opacity="1"></stop><stop offset="85.55555555555554%" stop-color="#011f38" stop-opacity="1"></stop></linearGradient></defs><defs><linearGradient id="grad1_6" x1="43.8%" y1="100%" x2="100%" y2="0%"><stop offset="14.444444444444446%" stop-color="#02192c" stop-opacity="1"></stop><stop offset="85.55555555555554%" stop-color="#011f38" stop-opacity="1"></stop></linearGradient></defs><defs><linearGradient id="grad1_7" x1="43.8%" y1="100%" x2="100%" y2="0%"><stop offset="14.444444444444446%" stop-color="#02192c" stop-opacity="1"></stop><stop offset="85.55555555555554%" stop-color="#001220" stop-opacity="1"></stop></linearGradient></defs><defs><linearGradient id="grad2_0" x1="0%" y1="100%" x2="56.3%" y2="0%"><stop offset="14.444444444444446%" stop-color="#293c78" stop-opacity="1"></stop><stop offset="85.55555555555554%" stop-color="#293c78" stop-opacity="1"></stop></linearGradient></defs><defs><linearGradient id="grad2_1" x1="0%" y1="100%" x2="56.3%" y2="0%"><stop offset="14.444444444444446%" stop-color="#1c376b" stop-opacity="1"></stop><stop offset="85.55555555555554%" stop-color="#293c78" stop-opacity="1"></stop></linearGradient></defs><defs><linearGradient id="grad2_2" x1="0%" y1="100%" x2="56.3%" y2="0%"><stop offset="14.444444444444446%" stop-color="#1c376b" stop-opacity="1"></stop><stop offset="85.55555555555554%" stop-color="#11315f" stop-opacity="1"></stop></linearGradient></defs><defs><linearGradient id="grad2_3" x1="0%" y1="100%" x2="56.3%" y2="0%"><stop offset="14.444444444444446%" stop-color="#072b52" stop-opacity="1"></stop><stop offset="85.55555555555554%" stop-color="#11315f" stop-opacity="1"></stop></linearGradient></defs><defs><linearGradient id="grad2_4" x1="0%" y1="100%" x2="56.3%" y2="0%"><stop offset="14.444444444444446%" stop-color="#072b52" stop-opacity="1"></stop><stop offset="85.55555555555554%" stop-color="#032545" stop-opacity="1"></stop></linearGradient></defs><defs><linearGradient id="grad2_5" x1="0%" y1="100%" x2="56.3%" y2="0%"><stop offset="14.444444444444446%" stop-color="#011f38" stop-opacity="1"></stop><stop offset="85.55555555555554%" stop-color="#032545" stop-opacity="1"></stop></linearGradient></defs><defs><linearGradient id="grad2_6" x1="0%" y1="100%" x2="56.3%" y2="0%"><stop offset="14.444444444444446%" stop-color="#011f38" stop-opacity="1"></stop><stop offset="85.55555555555554%" stop-color="#02192c" stop-opacity="1"></stop></linearGradient></defs><defs><linearGradient id="grad2_7" x1="0%" y1="100%" x2="56.3%" y2="0%"><stop offset="14.444444444444446%" stop-color="#001220" stop-opacity="1"></stop><stop offset="85.55555555555554%" stop-color="#02192c" stop-opacity="1"></stop></linearGradient></defs><g transform="translate(960, 540)"><path d="M-229 0C-235.4 -27.3 -241.8 -54.6 -231.1 -75.1C-220.4 -95.6 -192.6 -109.4 -174.7 -127C-156.9 -144.5 -148.9 -166 -134 -184.5C-119.1 -203 -97.3 -218.5 -73.9 -227.3C-50.4 -236.1 -25.2 -238 0 -240L0 0Z" fill="#021626"></path><path d="M-200.4 0C-206 -23.9 -211.6 -47.7 -202.2 -65.7C-192.9 -83.7 -168.5 -95.7 -152.9 -111.1C-137.3 -126.5 -130.3 -145.2 -117.3 -161.4C-104.2 -177.6 -85.2 -191.2 -64.6 -198.9C-44.1 -206.6 -22 -208.3 0 -210L0 0Z" fill="#021c32"></path><path d="M-171.7 0C-176.6 -20.5 -181.4 -40.9 -173.3 -56.3C-165.3 -71.7 -144.5 -82 -131.1 -95.2C-117.7 -108.4 -111.7 -124.5 -100.5 -138.3C-89.4 -152.2 -73 -163.9 -55.4 -170.5C-37.8 -177.1 -18.9 -178.5 0 -180L0 0Z" fill="#02223e"></path><path d="M-143.1 0C-147.1 -17.1 -151.1 -34.1 -144.4 -46.9C-137.8 -59.8 -120.4 -68.4 -109.2 -79.4C-98 -90.3 -93.1 -103.7 -83.8 -115.3C-74.5 -126.8 -60.8 -136.6 -46.2 -142.1C-31.5 -147.5 -15.7 -148.8 0 -150L0 0Z" fill="#04284b"></path><path d="M-114.5 0C-117.7 -13.6 -120.9 -27.3 -115.6 -37.5C-110.2 -47.8 -96.3 -54.7 -87.4 -63.5C-78.4 -72.3 -74.4 -83 -67 -92.2C-59.6 -101.5 -48.7 -109.3 -36.9 -113.7C-25.2 -118 -12.6 -119 0 -120L0 0Z" fill="#0c2e58"></path><path d="M-85.9 0C-88.3 -10.2 -90.7 -20.5 -86.7 -28.2C-82.7 -35.9 -72.2 -41 -65.5 -47.6C-58.8 -54.2 -55.8 -62.2 -50.3 -69.2C-44.7 -76.1 -36.5 -81.9 -27.7 -85.2C-18.9 -88.5 -9.4 -89.3 0 -90L0 0Z" fill="#173465"></path><path d="M-57.2 0C-58.9 -6.8 -60.5 -13.6 -57.8 -18.8C-55.1 -23.9 -48.2 -27.3 -43.7 -31.7C-39.2 -36.1 -37.2 -41.5 -33.5 -46.1C-29.8 -50.7 -24.3 -54.6 -18.5 -56.8C-12.6 -59 -6.3 -59.5 0 -60L0 0Z" fill="#233972"></path><path d="M-28.6 0C-29.4 -3.4 -30.2 -6.8 -28.9 -9.4C-27.6 -12 -24.1 -13.7 -21.8 -15.9C-19.6 -18.1 -18.6 -20.7 -16.8 -23.1C-14.9 -25.4 -12.2 -27.3 -9.2 -28.4C-6.3 -29.5 -3.1 -29.8 0 -30L0 0Z" fill="#293c78"></path></g><g transform="translate(0, 0)"><path d="M243 0C241 25.7 239 51.4 229.2 74.5C219.4 97.5 201.6 117.8 182.8 132.8C164 147.9 144.1 157.5 126.4 173.9C108.6 190.3 93 213.4 72.3 222.5C51.6 231.7 25.8 226.8 0 222L0 0Z" fill="#021626"></path><path d="M212.6 0C210.9 22.5 209.2 45 200.6 65.2C191.9 85.3 176.4 103.1 160 116.2C143.5 129.4 126.1 137.9 110.6 152.2C95 166.5 81.4 186.7 63.3 194.7C45.2 202.7 22.6 198.5 0 194.3L0 0Z" fill="#021c32"></path><path d="M182.3 0C180.8 19.3 179.3 38.6 171.9 55.9C164.5 73.1 151.2 88.4 137.1 99.6C123 110.9 108.1 118.2 94.8 130.5C81.5 142.7 69.8 160.1 54.2 166.9C38.7 173.8 19.4 170.1 0 166.5L0 0Z" fill="#02223e"></path><path d="M151.9 0C150.6 16.1 149.4 32.2 143.3 46.5C137.1 60.9 126 73.6 114.3 83C102.5 92.4 90.1 98.5 79 108.7C67.9 119 58.1 133.4 45.2 139.1C32.3 144.8 16.1 141.8 0 138.8L0 0Z" fill="#04284b"></path><path d="M121.5 0C120.5 12.9 119.5 25.7 114.6 37.2C109.7 48.7 100.8 58.9 91.4 66.4C82 73.9 72.1 78.8 63.2 87C54.3 95.2 46.5 106.7 36.2 111.3C25.8 115.8 12.9 113.4 0 111L0 0Z" fill="#0c2e58"></path><path d="M91.1 0C90.4 9.6 89.6 19.3 86 27.9C82.3 36.6 75.6 44.2 68.6 49.8C61.5 55.4 54 59.1 47.4 65.2C40.7 71.4 34.9 80 27.1 83.5C19.4 86.9 9.7 85.1 0 83.3L0 0Z" fill="#173465"></path><path d="M60.8 0C60.3 6.4 59.8 12.9 57.3 18.6C54.8 24.4 50.4 29.5 45.7 33.2C41 37 36 39.4 31.6 43.5C27.2 47.6 23.3 53.4 18.1 55.6C12.9 57.9 6.5 56.7 0 55.5L0 0Z" fill="#233972"></path><path d="M30.4 0C30.1 3.2 29.9 6.4 28.7 9.3C27.4 12.2 25.2 14.7 22.9 16.6C20.5 18.5 18 19.7 15.8 21.7C13.6 23.8 11.6 26.7 9 27.8C6.5 29 3.2 28.4 0 27.8L0 0Z" fill="#293c78"></path></g></svg>